<?xml version="1.0" encoding="UTF-8" standalone="no"?>
<!-- Created with Inkscape (http://www.inkscape.org/) -->

<svg
   version="1.1"
   id="svg1"
   width="424.81808"
   height="103.60874"
   viewBox="0 0 424.81808 103.60874"
   xmlns="http://www.w3.org/2000/svg"
   xmlns:svg="http://www.w3.org/2000/svg">
  <defs
     id="defs1" />
  <g
     id="g1"
     transform="translate(-19.593161,-16.71476)">
    <path
       style="fill:#000000"
       d="m 357.99812,119.52229 c -1.01344,-1.63978 0.10562,-2.61056 5.20225,-4.51295 7.10526,-2.65213 8.28266,-4.03125 8.28266,-9.70164 0,-4.51503 -0.14473,-4.80274 -1.93426,-3.84501 -5.08847,2.72327 -13.26573,0.63211 -19.80692,-5.0652 l -3.24119,-2.823036 -6.25881,2.960918 c -8.05666,3.811438 -14.57086,3.967468 -21.08292,0.504965 l -4.62198,-2.457532 -1.42948,2.040856 c -1.67706,2.394344 -7.00696,3.816969 -14.42547,3.850349 -5.11201,0.023 -5.35269,-0.0998 -6.75,-3.444023 -0.79693,-1.907335 -1.44897,-4.832335 -1.44897,-6.5 0,-2.64441 -0.35164,-3.030373 -2.75,-3.018464 -6.27917,0.03118 -7.25,0.838844 -7.25,6.031548 0,2.960846 -0.58163,5.393567 -1.51195,6.323887 -1.58483,1.584832 -8.9269,3.078212 -12.11511,2.464222 -2.20774,-0.42518 -3.55542,-6.76335 -5.41164,-25.451145 -1.37315,-13.824412 -0.73268,-17.295085 4.23591,-22.95399 5.93874,-6.763852 14.55978,-6.458667 22.42794,0.793949 2.42867,2.238665 4.63024,3.855817 4.89239,3.593669 0.26214,-0.262147 -0.24309,-2.588898 -1.12275,-5.170559 -2.11793,-6.215766 -1.23617,-9.39574 3.10868,-11.211134 5.3854,-2.250163 10.86151,-1.839315 14.32464,1.074715 2.95524,2.486673 2.97673,2.579355 2.43383,10.5 -0.30125,4.395151 -0.21746,7.991183 0.1862,7.991183 0.40366,0 2.58158,-1.581516 4.83981,-3.51448 2.25823,-1.932963 5.82393,-3.977103 7.92378,-4.542533 6.44904,-1.736546 14.67661,0.675453 19.29214,5.655689 l 2.22908,2.405217 4.575,-4.574997 4.57499,-4.574996 -9.22512,-10.67695 C 333.51145,27.057825 328.48303,20.574534 328.48303,18.90807 c 0,-0.775611 0.1125,-1.452301 0.25,-1.503755 0.1375,-0.05146 20.79911,-0.295595 45.9147,-0.542534 32.21864,-0.316777 45.86228,-0.129279 46.33572,0.63677 0.85399,1.381788 -1.44207,4.353423 -16.4185,21.249317 -6.70336,7.5625 -11.72265,13.75 -11.15398,13.75 0.56868,0 1.31929,1.13687 1.66804,2.526378 0.7772,3.096628 3.16981,4.473622 7.77318,4.473622 1.92535,0 4.66831,0.443946 6.09546,0.986547 2.32393,0.883556 3.03539,0.527448 6.8151,-3.411166 6.33035,-6.596497 14.82176,-7.216396 21.95803,-1.603004 5.09769,4.009841 6.13249,8.118466 6.5553,26.027623 0.47266,20.020332 -0.0412,22.000002 -5.71096,22.000002 -3.73954,0 -22.51965,-5.558257 -27.14627,-8.03435 -1.79262,-0.95938 -2.36813,-0.793452 -3.66375,1.056304 -3.36465,4.803706 -15.22759,7.603986 -20.58781,4.859816 -1.20134,-0.61503 -3.87176,-2.731359 -5.93426,-4.702952 l -3.75,-3.584716 v 8.547958 c 0,9.81919 0.48407,10.59174 8.5,13.56559 2.88841,1.07158 5,2.47522 5,3.32366 0,1.21975 -2.74179,1.5152 -16.17589,1.74311 -10.25942,0.17404 -16.40747,-0.10028 -16.80902,-0.75 z m 19.73491,-5.67442 -3.25,-3.15 -3.25,3.15 -3.25,3.15 h 6.5 6.5 z m -8.04238,-17.037892 c 2.40286,-2.174566 5.0577,-11.406804 4.22929,-14.707446 -0.35868,-1.429112 -3.73479,-5.322488 -7.5431,-8.698808 -7.00538,-6.210739 -8.14784,-8.21066 -5.31202,-9.298867 3.16551,-1.214721 4.79976,-0.526515 8.65088,3.643011 3.82014,4.135977 3.96549,4.196342 5.41774,2.25 2.14886,-2.879955 0.9998,-8.311328 -2.49842,-11.809549 -7.8192,-7.819199 -22.13574,-1.93104 -22.14825,9.109209 -0.006,4.981276 2.23098,8.340836 8.36587,12.566095 5.88896,4.055882 7.56306,6.805518 5.59056,9.182233 -1.88991,2.277204 -3.67282,1.715062 -4.79806,-1.512801 -1.95842,-5.617939 -9.16211,-4.93803 -9.16211,0.864751 0,8.104443 13.1728,13.873604 19.20762,8.412172 z m 29.36579,1.221664 c 4.30324,-1.798007 7.09272,-7.508872 7.58749,-15.533774 0.33169,-5.379828 0.27769,-5.507041 -2.47137,-5.822258 -3.74009,-0.42885 -5.68953,1.371214 -5.68953,5.253573 0,6.452856 -5.06359,8.790753 -7.71014,3.559827 -1.33361,-2.635889 -1.70006,-8.758591 -0.68287,-11.409355 0.47565,-1.239521 2.1634,-1.581787 7.8,-1.581787 8.1257,0 9.59301,-0.87185 9.59301,-5.7 v -3.3 h -7.93963 -7.93964 L 391.2934,59.78336 c -0.2799,-3.349858 -0.65396,-3.787257 -3.81037,-4.455567 -6.76563,-1.432496 -8.44791,0.485152 -5.27521,6.013269 1.63337,2.845974 1.6331,3.261068 -0.005,7.831039 -1.9129,5.336786 -2.24768,13.998509 -0.74372,19.242497 1.18439,4.129722 4.48756,7.877671 8.52388,9.671626 3.86934,1.719744 4.84084,1.713894 9.07341,-0.05458 z m 41.52468,-0.717061 c 1.67417,-3.128211 0.65372,-28.18477 -1.33649,-32.816713 -2.54014,-5.911845 -6.16934,-8.5 -11.919,-8.5 -4.48413,0 -5.34396,0.379389 -8.38813,3.701146 -5.50975,6.012187 -5.82527,10.761523 -0.86506,13.021545 2.36381,1.077023 2.85172,0.942986 4.58172,-1.258652 4.23179,-5.385501 4.82409,-5.903103 6.16583,-5.388231 1.65592,0.635439 3.66304,4.729209 3.66304,7.471245 0,1.710187 -0.71475,1.95364 -5.75,1.958524 -8.89105,0.0086 -12.86785,1.459427 -14.15989,5.165769 -0.59956,1.719905 -1.09011,4.623394 -1.09011,6.452197 0,3.94052 2.51768,5.5873 11.88195,7.771838 3.28962,0.767415 7.01205,2.117396 8.27209,2.999959 3.32718,2.330452 7.53277,2.05837 8.94405,-0.578627 z M 419.54733,86.584037 c -1.20849,-0.785967 -1.22254,-1.190571 -0.0888,-2.556623 0.99086,-1.193918 2.69197,-1.544469 6.4357,-1.326216 4.32326,0.252039 5.08882,0.597548 5.08882,2.29667 0,1.698673 -0.75332,2.039166 -5,2.259953 -2.75,0.142975 -5.64606,-0.160228 -6.4357,-0.673784 z m -142.98446,9.784644 c 0.40792,-0.660028 0.49388,-3.600972 0.19101,-6.535432 l -0.55066,-5.335381 2.88991,-0.01365 c 5.88962,-0.02783 7.3899,-0.962314 7.3899,-4.602976 v -3.383369 h -5.8 c -3.19,0 -6.34,-0.54 -7,-1.2 -0.66,-0.66 -1.2,-3.3049 -1.2,-5.877555 0,-8.681299 5.48343,-8.871348 6.93475,-0.24035 0.62949,3.743568 0.71913,3.811841 4.60362,3.506486 6.11812,-0.480939 6.98022,-1.892886 5.10154,-8.355316 -2.91905,-10.04115 -10.8711,-14.325638 -18.19148,-9.801391 -6.49799,4.015979 -7.48102,9.397956 -5.32926,29.177236 1.54349,14.188072 2.00157,15.19526 6.57346,14.453344 2.00505,-0.325375 3.97929,-1.131613 4.38721,-1.791641 z m 33.40818,-7.620813 c -0.35718,-4.2625 -0.95061,-12.475 -1.31872,-18.25 l -0.6693,-10.5 -4.30463,0.09034 c -2.36755,0.04969 -4.94067,0.726384 -5.71805,1.503764 -1.28088,1.280875 -3.46708,21.196957 -3.47489,31.655891 l -0.002,3.250005 h 8.06872 8.06873 z m 24.01198,6.646221 c 5.57903,-1.523946 10.69265,-5.561685 10.30717,-8.138589 -0.5618,-3.755542 -3.22756,-4.401613 -8.10686,-1.964772 -5.04549,2.519838 -6.57769,2.675764 -10.17723,1.035701 -2.66402,-1.213808 -4.43504,-5.361693 -2.89986,-6.791723 0.48223,-0.449202 5.32583,-1.327736 10.76355,-1.952298 5.43773,-0.624562 10.27523,-1.375644 10.75,-1.669071 1.33149,-0.822901 1.02345,-5.787765 -0.60019,-9.673668 -4.04343,-9.677303 -17.52836,-12.705369 -24.32746,-5.46278 -3.18266,3.390251 -6.16268,10.754366 -6.18716,15.289478 -0.0295,5.475188 2.51203,13.699789 4.90188,15.862577 1.81962,1.646735 8.34185,4.433845 10.57616,4.519454 0.55,0.02107 2.8,-0.453365 5,-1.054309 z m -10.5,-25.873168 c 0,-0.537321 1.14343,-1.726154 2.54096,-2.641851 2.0348,-1.333249 3.03082,-1.441713 5,-0.544491 4.39944,2.004517 3.08189,4.163289 -2.54096,4.163289 -2.75,0 -5,-0.439626 -5,-0.976947 z m 9.91667,13.352719 c 0.22916,-0.206674 0.13762,-0.654815 -0.20343,-0.995868 -1.00342,-1.003413 -5.85454,0.582445 -5.16998,1.69009 0.54031,0.874239 4.15159,0.407677 5.37341,-0.694222 z m 60.77266,-4.125772 c -0.25153,-0.9625 -0.45733,-0.175 -0.45733,1.75 0,1.925 0.2058,2.7125 0.45733,1.75 0.25152,-0.9625 0.25152,-2.5375 0,-3.5 z m -43.68933,0.75 c 0,-0.55 -0.42344,-1 -0.94098,-1 -0.51754,0 -1.2191,0.45 -1.55902,1 -0.33992,0.55 0.0835,1 0.94098,1 0.85746,0 1.55902,-0.45 1.55902,-1 z M 306.16858,54.323554 c 2.8811,-2.706651 3.08169,-7.344702 0.38019,-8.790502 -1.06384,-0.569351 -3.34342,-1.035184 -5.06574,-1.035184 -7.11077,0 -9.08662,4.212596 -4.31291,9.195281 3.22624,3.367473 5.8866,3.553849 8.99846,0.630405 z m 77.89774,-2.909757 c 3.96164,0.137575 4.34255,-0.149556 12.78453,-9.637065 l 8.70124,-9.778864 -31.14405,-0.807152 c -17.12922,-0.443934 -31.36668,-0.584508 -31.63881,-0.312386 -0.27212,0.272122 3.37152,4.883099 8.09699,10.246616 l 8.59174,9.751849 6.05111,0.182438 c 3.3281,0.100342 6.37124,0.504647 6.76253,0.898457 0.39129,0.393809 2.28643,0.400632 4.21143,0.01516 1.925,-0.38547 5.33748,-0.637045 7.58329,-0.559055 z m 28.6989,-27.39162 2.78219,-3.498134 -40.93591,0.236913 c -26.92276,0.155812 -40.74679,0.579231 -40.38343,1.236912 0.30387,0.55 1.35863,1.9 2.34391,3 1.71947,1.919672 3.2297,2.010492 37.60124,2.261222 l 35.80981,0.261221 z M 77.200529,115.47533 c -5.590704,-1.4185 -9.493177,-3.69533 -10.211177,-5.95754 -0.854646,-2.69276 -0.106406,-3.66305 4.811528,-6.23941 l 4.182149,-2.1909 -5.118794,-0.6696 c -2.981951,-0.39007 -6.739007,-1.773214 -9,-3.313301 l -3.881204,-2.643702 -0.578523,4.1035 c -0.318187,2.256923 -1.218187,4.508363 -2,5.003183 -0.781812,0.49483 -4.390123,0.90658 -8.018467,0.915 -5.176442,0.012 -7.093552,-0.41536 -8.90301,-1.98469 -1.778928,-1.54286 -3.741359,-2 -8.585622,-2 -5.10893,0 -6.379911,-0.32624 -6.817667,-1.750002 C 22.478724,96.793122 20.929326,77.303465 19.9148,58.936525 19.335568,48.45012 19.46558,46.658176 20.910473,45.213283 c 2.432142,-2.432141 8.85259,-4.073064 12.937942,-3.306647 3.857912,0.723749 4.322673,1.817495 4.880875,11.486418 0.245634,4.254767 0.392114,4.435864 4.584903,5.668463 5.242226,1.541113 7.737251,3.673716 10.398437,8.887984 l 2.01678,3.951633 2.711228,-5.951633 c 1.536903,-3.37378 4.465183,-7.529315 6.760682,-9.594115 7.679372,-6.907592 15.872239,-5.91759 23.963719,2.895709 l 4.31799,4.703181 0.0153,-4.978204 c 0.02,-6.487761 0.85272,-7.600712 6.11101,-8.167105 6.145471,-0.661954 12.131231,1.515473 12.875391,4.68365 0.32229,1.372112 1.35375,2.642608 2.29214,2.823324 1.54054,0.296682 1.70615,-0.988933 1.70615,-13.244749 V 31.497868 h 47.5 47.5 v 14.440983 c 0,8.41406 0.4116,14.695363 0.98621,15.050497 0.54242,0.335233 2.45492,-1.063267 4.25,-3.107777 4.38752,-4.997161 10.69981,-7.739256 15.82318,-6.87367 6.91638,1.168516 17.94061,9.880666 17.94061,14.177981 0,0.483687 -1.59465,3.339255 -3.54366,6.345708 -3.1947,4.927988 -3.48115,5.932124 -2.90883,10.196897 1.01715,7.57952 -0.26633,12.389581 -4.4909,16.830535 -3.19759,3.361368 -4.3608,3.938848 -7.93389,3.938848 -5.42593,0 -9.94505,-1.94125 -14.86359,-6.384859 -2.17896,-1.968558 -4.25366,-3.287284 -4.61044,-2.930503 -0.35678,0.356781 -0.64869,3.083309 -0.64869,6.05895 0,4.574602 -0.42666,5.836912 -2.76229,8.172542 -5.29811,5.29811 -13.01243,7.3304 -29.79914,7.85038 -13.92868,0.43145 -15.37645,0.30583 -19.25,-1.67031 -5.19595,-2.65077 -5.36985,-4.85268 -0.73852,-9.35058 3.3393,-3.24308 3.40984,-3.46762 2.19737,-6.994465 l -1.25268,-3.643817 -4.32297,2.577909 c -3.66652,2.186446 -5.51902,2.577909 -12.19935,2.577909 -6.9243,0 -8.38025,-0.333453 -12.04492,-2.758615 -4.02086,-2.660877 -4.21719,-2.692112 -5.54145,-0.881579 -0.7551,1.03237 -1.60586,3.002036 -1.89057,4.377036 -1.69893,8.204832 -5.40878,11.209032 -17.89548,14.491592 -7.384451,1.94126 -23.673411,2.78216 -28.782501,1.48587 z M 54.096068,91.793313 C 53.247676,79.723955 50.94852,69.359359 48.401237,66.121013 46.033573,63.111017 42.113556,62.142993 37.598311,63.453299 l -3.38472,0.982232 0.705186,-9.606826 0.705186,-9.606827 -4.673532,0.526775 c -8.136091,0.917055 -8.006489,0.39334 -6.653458,26.886195 0.651529,12.757192 1.348901,23.359197 1.549715,23.560011 0.200814,0.200814 2.681067,0.639406 5.511674,0.97465 l 5.146557,0.609533 -0.08905,-9.890587 c -0.09255,-10.279452 0.542923,-13.732 2.412787,-13.108712 1.63506,0.54502 2.441877,4.387161 2.565702,12.218125 0.06088,3.85 0.389612,8.6875 0.730522,10.75 l 0.619837,3.750002 h 6.016757 6.016758 z m 118.688062,5.80345 c 1.47662,-1.476612 2.63204,-13.978649 2.66618,-28.848895 0.0365,-15.880768 0.3501,-15.299131 -7.12941,-13.221683 l -3.66212,1.017164 -0.69659,8.362482 c -0.85238,10.232645 -0.27588,31.593712 0.90255,33.442781 0.90455,1.419316 6.25632,0.911229 7.91939,-0.751849 z m 63.90652,-0.786785 c 2.41748,-2.187792 5.05642,-11.41189 4.2192,-14.747674 -0.36267,-1.444965 -2.6808,-4.300585 -5.15141,-6.345822 -7.93665,-6.570166 -9.27518,-8.055635 -8.67295,-9.625017 1.54033,-4.014048 8.28382,-2.132049 10.60359,2.959293 1.48782,3.265412 2.78041,3.088027 6.65919,-0.913852 l 3.25757,-3.360962 -4.8114,-4.249559 c -2.64628,-2.337257 -5.8532,-4.649824 -7.12651,-5.139038 -8.60151,-3.304765 -18.1849,3.077448 -18.1849,12.110521 0,4.782206 2.30646,8.189904 8.36961,12.365755 5.88896,4.055882 7.56306,6.805518 5.59056,9.182233 -1.89712,2.285891 -3.48149,1.719518 -5.0297,-1.797988 -1.56385,-3.553043 -4.4975,-4.587267 -7.87889,-2.777607 -2.92804,1.567043 -2.54105,4.400544 1.17983,8.638384 5.54225,6.312276 12.4314,7.814325 16.97621,3.701333 z M 83.483029,94.702769 c 5.14525,-2.506327 6.41388,-6.013812 6.46025,-17.861242 0.0387,-9.896396 -0.0397,-10.254718 -3.06627,-14 -4.4009,-5.446046 -8.62469,-7.710561 -12.889475,-6.910482 -10.575833,1.984039 -16.17574,16.313699 -12.531436,32.066823 0.952887,4.119013 4.700697,8.031453 8.491369,8.864369 3.267767,0.718019 9.752122,-0.316497 13.535562,-2.159468 z m -12.964814,-9.13916 c -2.47746,-4.629175 -0.391068,-16.131226 3.373526,-18.597882 3.054508,-2.00139 5.072438,-1.081037 7.128148,3.251059 2.23189,4.70336 1.49569,11.553086 -1.59535,14.843347 -2.81807,2.999694 -7.430834,3.260455 -8.906324,0.503476 z m 6.393384,-2.63717 c 0.93385,-0.933846 1.56522,-3.266818 1.55612,-5.75 -0.0313,-8.554946 -3.76563,-8.80165 -4.722539,-0.311993 -0.473486,4.200757 0.03693,7.633422 1.135039,7.633422 0.25297,0 1.1671,-0.707143 2.03138,-1.571429 z m 19.22211,13.571429 c 1.16742,0 1.14233,-0.499595 -0.15068,-3 -1.93374,-3.739438 -2.8261,-3.755148 -5.4319,-0.09563 -2.77692,3.899814 -2.61898,4.455806 1.0569,3.72063 1.71875,-0.34375 3.75531,-0.625 4.52568,-0.625 z m 21.832591,0.0064 c 4.8759,-1.853816 7.32249,-12.983264 3.92151,-17.838842 -2.50368,-3.57451 -4.63015,-2.300653 -6.40628,3.837661 -1.36338,4.711865 -1.93543,5.49482 -4.01468,5.49482 -2.95726,0 -4.9482,-3.47306 -4.96908,-8.668213 -0.0263,-6.540293 0.35704,-6.831826 8.98284,-6.831826 h 7.78361 l 0.47,-3.75 c 0.2585,-2.0625 0.28117,-4.0875 0.0504,-4.5 -0.2308,-0.4125 -3.76807,-0.75 -7.86061,-0.75 h -7.44098 v -3.864076 c 0,-3.83964 -0.0294,-3.868103 -4.64641,-4.500937 -7.399751,-1.014249 -7.734581,-0.333292 -7.057901,14.35395 0.60474,13.125616 2.013,21.690222 4.013561,24.409258 0.70193,0.954022 3.65382,1.975438 7.19075,2.488155 3.3,0.478371 6.30821,0.92464 6.6849,0.991708 0.3767,0.06707 1.86096,-0.325196 3.29837,-0.871697 z m 34.3585,-2.926443 c 5.53609,-2.825525 7.5682,-5.445367 6.20275,-7.996731 -1.40023,-2.616358 -4.01086,-2.641083 -8.78334,-0.08319 -4.29762,2.303392 -6.15446,2.461379 -9.7381,0.828561 -2.66495,-1.214231 -4.43396,-5.359781 -2.89986,-6.795622 0.48223,-0.451347 5.59334,-1.356153 11.35802,-2.010682 5.76468,-0.654529 10.77065,-1.368917 11.12437,-1.587531 1.1105,-0.686324 -1.03427,-9.817779 -2.92063,-12.434726 -0.99114,-1.375 -3.80072,-3.540583 -6.24352,-4.812406 -7.22423,-3.761228 -14.06551,-1.925294 -19.37967,5.200746 -1.75014,2.346851 -2.06151,4.226964 -2.05994,12.438211 0.002,11.781477 1.25207,14.77844 7.49815,17.980063 5.11151,2.620061 9.69651,2.409737 15.84177,-0.726696 z M 137.48303,69.520921 c 0,-0.537321 1.14343,-1.726154 2.54096,-2.641851 2.0348,-1.333249 3.03082,-1.441713 5,-0.544491 4.39944,2.004517 3.08189,4.163289 -2.54096,4.163289 -2.75,0 -5,-0.439626 -5,-0.976947 z m 44,24.976947 c -3.18067,-2.487955 -4,-2.487955 -4,0 0,1.594305 0.65925,1.99549 3.25,1.977764 l 3.25,-0.02224 z m 23.18392,-1.121814 c 3.38781,-1.702595 6.81608,-5.261101 6.81608,-7.075012 0,-0.413498 -1.30452,-1.426408 -2.89894,-2.250911 -2.65708,-1.37403 -3.10166,-1.33963 -5.32892,0.41233 -3.47349,2.732247 -7.34192,3.456252 -10.80427,2.022098 -3.03812,-1.258432 -5.02226,-5.383587 -3.34465,-6.953752 0.48223,-0.451347 5.60178,-1.351674 11.37678,-2.000729 5.775,-0.649054 10.78876,-1.484324 11.14169,-1.856154 0.99588,-1.0492 -1.6485,-10.032809 -3.82914,-13.008586 -4.29459,-5.860532 -13.09167,-7.819055 -18.98367,-4.2264 -9.78111,5.964043 -12.41692,26.239351 -4.35914,33.531547 5.03079,4.552803 12.86756,5.097723 20.21418,1.405569 z M 189.48303,69.520921 c 0,-0.537321 1.14343,-1.726154 2.54096,-2.641851 2.0348,-1.333249 3.03082,-1.441713 5,-0.544491 4.39944,2.004517 3.08189,4.163289 -2.54096,4.163289 -2.75,0 -5,-0.439626 -5,-0.976947 z M 147.3997,82.87364 c 0.22916,-0.206674 0.13762,-0.654815 -0.20343,-0.995868 -1.00342,-1.003413 -5.85454,0.582445 -5.16998,1.69009 0.54031,0.874239 4.15159,0.407677 5.37341,-0.694222 z m 52,0 c 0.22916,-0.206674 0.13762,-0.654815 -0.20343,-0.995868 -1.00342,-1.003413 -5.85454,0.582445 -5.16998,1.69009 0.54031,0.874239 4.15159,0.407677 5.37341,-0.694222 z m -88.22734,-4.125772 c -0.25153,-0.9625 -0.45733,-0.175 -0.45733,1.75 0,1.925 0.2058,2.7125 0.45733,1.75 0.25152,-0.9625 0.25152,-2.5375 0,-3.5 z M 217.48303,78.4275 c 0,-0.64321 -0.71358,-0.618104 -2,0.07037 -1.1,0.588702 -2,1.520368 -2,2.070368 0,0.64321 0.71358,0.618104 2,-0.07037 1.1,-0.588702 2,-1.520368 2,-2.070368 z M 125.6497,60.688933 c 0.18333,-0.444914 2.80833,-2.198237 5.83333,-3.896274 9.65845,-5.42162 16.40837,-5.213145 24.73117,0.763837 l 4.26883,3.065643 v -2.562135 c 0,-3.771937 3.10237,-6.251005 8.80401,-7.03518 6.6662,-0.916838 9.19599,0.444673 9.19599,4.949211 0,4.276692 1.19571,5.070043 3.61399,2.397873 1.03471,-1.143339 3.18367,-2.752285 4.77546,-3.575435 3.24051,-1.675728 11.92222,-2.230307 15.36055,-0.981217 2.23847,0.813197 2.25,0.765776 2.25,-9.25 V 34.497868 h -40.5 -40.5 v 13.5 c 0,7.515152 0.40638,13.5 0.91667,13.5 0.50416,0 1.06666,-0.364021 1.25,-0.808935 z"
       id="path1" />
  </g>
</svg>
